<svg width="625" height="626" viewBox="0 0 625 626" fill="none" xmlns="http://www.w3.org/2000/svg">
<rect y="122" width="25" height="450" fill="#D9D9D9"/>
<rect x="533" y="172" width="25" height="400" fill="#D9D9D9"/>
<rect x="533" y="158" width="25" height="25" rx="11" fill="#D9D9D9"/>
<path d="M54 68C46.9086 68 39.8867 69.3968 33.3351 72.1105C26.7835 74.8243 20.8306 78.8019 15.8162 83.8162C10.8019 88.8306 6.82426 94.7835 4.1105 101.335C1.39675 107.887 -1.07077e-06 114.909 0 122L24.9488 122C24.9488 118.185 25.7002 114.407 27.1601 110.883C28.6201 107.358 30.76 104.155 33.4577 101.458C36.1553 98.76 39.3579 96.6201 42.8826 95.1601C46.4072 93.7002 50.1849 92.9488 54 92.9488L54 68Z" fill="#D9D9D9"/>
<rect x="54" y="626" width="25" height="450" transform="rotate(-90 54 626)" fill="#D9D9D9"/>
<rect x="54" y="93" width="25" height="400" transform="rotate(-90 54 93)" fill="#D9D9D9"/>
<path d="M0 572C-6.19948e-07 579.091 1.39675 586.113 4.1105 592.665C6.82426 599.216 10.8019 605.169 15.8162 610.184C20.8306 615.198 26.7835 619.176 33.3351 621.889C39.8867 624.603 46.9086 626 54 626L54 601.051C50.1849 601.051 46.4072 600.3 42.8826 598.84C39.3579 597.38 36.1553 595.24 33.4577 592.542C30.76 589.845 28.6201 586.642 27.1601 583.117C25.7002 579.593 24.9488 575.815 24.9488 572L0 572Z" fill="#D9D9D9"/>
<path d="M504 626C511.091 626 518.113 624.603 524.665 621.889C531.216 619.176 537.169 615.198 542.184 610.184C547.198 605.169 551.176 599.216 553.889 592.665C556.603 586.113 558 579.091 558 572L533.051 572C533.051 575.815 532.3 579.593 530.84 583.117C529.38 586.642 527.24 589.845 524.542 592.542C521.845 595.24 518.642 597.38 515.117 598.84C511.593 600.3 507.815 601.051 504 601.051L504 626Z" fill="#D9D9D9"/>
<path d="M625.003 10C625.003 4.47716 620.525 9.00195e-06 615.003 9.00195e-06L525.003 9.00195e-06C519.48 9.00195e-06 515.003 4.47716 515.003 10C515.003 15.5229 519.48 20 525.003 20H605.003V100C605.003 105.523 609.48 110 615.003 110C620.525 110 625.003 105.523 625.003 100V10ZM399.071 240.074L622.074 17.0711L607.931 2.92894L384.929 225.931L399.071 240.074Z" fill="white"/>
<rect x="443" y="68" width="25" height="25" rx="11" fill="#D9D9D9"/>
</svg>
